<svg width="18" height="16" viewBox="0 0 18 16" fill="none" xmlns="http://www.w3.org/2000/svg">
<path d="M9.00008 15.5L7.79175 14.4167C6.38897 13.1528 5.22925 12.0625 4.31258 11.1459C3.39591 10.2292 2.66675 9.40629 2.12508 8.67712C1.58341 7.94796 1.20494 7.27782 0.989665 6.66671C0.774387 6.0556 0.666748 5.4306 0.666748 4.79171C0.666748 3.48615 1.10425 2.39587 1.97925 1.52087C2.85425 0.645874 3.94453 0.208374 5.25008 0.208374C5.9723 0.208374 6.6598 0.361152 7.31258 0.666707C7.96536 0.972263 8.52786 1.40282 9.00008 1.95837C9.4723 1.40282 10.0348 0.972263 10.6876 0.666707C11.3404 0.361152 12.0279 0.208374 12.7501 0.208374C14.0556 0.208374 15.1459 0.645874 16.0209 1.52087C16.8959 2.39587 17.3334 3.48615 17.3334 4.79171C17.3334 5.4306 17.2258 6.0556 17.0105 6.66671C16.7952 7.27782 16.4167 7.94796 15.8751 8.67712C15.3334 9.40629 14.6042 10.2292 13.6876 11.1459C12.7709 12.0625 11.6112 13.1528 10.2084 14.4167L9.00008 15.5Z" fill="#F34040"/>
</svg>
