<svg width="18" height="16" viewBox="0 0 18 16" fill="none" xmlns="http://www.w3.org/2000/svg">
<path d="M8.99996 15.5L7.79163 14.4167C6.38885 13.1528 5.22913 12.0625 4.31246 11.1459C3.39579 10.2292 2.66663 9.40629 2.12496 8.67712C1.58329 7.94796 1.20482 7.27782 0.989543 6.66671C0.774265 6.0556 0.666626 5.4306 0.666626 4.79171C0.666626 3.48615 1.10413 2.39587 1.97913 1.52087C2.85413 0.645874 3.9444 0.208374 5.24996 0.208374C5.97218 0.208374 6.65968 0.361152 7.31246 0.666707C7.96524 0.972263 8.52774 1.40282 8.99996 1.95837C9.47218 1.40282 10.0347 0.972263 10.6875 0.666707C11.3402 0.361152 12.0277 0.208374 12.75 0.208374C14.0555 0.208374 15.1458 0.645874 16.0208 1.52087C16.8958 2.39587 17.3333 3.48615 17.3333 4.79171C17.3333 5.4306 17.2257 6.0556 17.0104 6.66671C16.7951 7.27782 16.4166 7.94796 15.875 8.67712C15.3333 9.40629 14.6041 10.2292 13.6875 11.1459C12.7708 12.0625 11.6111 13.1528 10.2083 14.4167L8.99996 15.5ZM8.99996 13.25C10.3333 12.0556 11.4305 11.0313 12.2916 10.1771C13.1527 9.32296 13.8333 8.5799 14.3333 7.94796C14.8333 7.31601 15.1805 6.75351 15.375 6.26046C15.5694 5.7674 15.6666 5.27782 15.6666 4.79171C15.6666 3.95837 15.3888 3.26393 14.8333 2.70837C14.2777 2.15282 13.5833 1.87504 12.75 1.87504C12.0972 1.87504 11.493 2.05907 10.9375 2.42712C10.3819 2.79518 9.99996 3.26393 9.79163 3.83337H8.20829C7.99996 3.26393 7.61802 2.79518 7.06246 2.42712C6.5069 2.05907 5.90274 1.87504 5.24996 1.87504C4.41663 1.87504 3.72218 2.15282 3.16663 2.70837C2.61107 3.26393 2.33329 3.95837 2.33329 4.79171C2.33329 5.27782 2.43052 5.7674 2.62496 6.26046C2.8194 6.75351 3.16663 7.31601 3.66663 7.94796C4.16663 8.5799 4.84718 9.32296 5.70829 10.1771C6.5694 11.0313 7.66663 12.0556 8.99996 13.25Z" fill="#343434"/>
</svg>
